<?xml version="1.0" encoding="us-ascii" standalone="no"?><svg xmlns="http://www.w3.org/2000/svg" xmlns:xlink="http://www.w3.org/1999/xlink" contentStyleType="text/css" height="1182px" preserveAspectRatio="none" style="width:2835px;height:1182px;background:#FFFFFF;" version="1.1" viewBox="0 0 2835 1182" width="2835px" zoomAndPan="magnify"><defs/><g><rect fill="none" height="334.1953" style="stroke:#000000;stroke-width:1.5;" width="2819" x="10" y="53.2969"/><rect fill="none" height="175.6641" style="stroke:#000000;stroke-width:1.5;" width="2819" x="10" y="401.4922"/><rect fill="none" height="175.6641" style="stroke:#000000;stroke-width:1.5;" width="2819" x="10" y="591.1563"/><rect fill="none" height="349.3281" style="stroke:#000000;stroke-width:1.5;" width="1690" x="1139" y="780.8203"/><line style="stroke:#181818;stroke-width:0.5;stroke-dasharray:5.0,5.0;" x1="107" x2="107" y1="36.2969" y2="1147.1484"/><line style="stroke:#181818;stroke-width:0.5;stroke-dasharray:5.0,5.0;" x1="305" x2="305" y1="36.2969" y2="1147.1484"/><line style="stroke:#181818;stroke-width:0.5;stroke-dasharray:5.0,5.0;" x1="553" x2="553" y1="36.2969" y2="1147.1484"/><line style="stroke:#181818;stroke-width:0.5;stroke-dasharray:5.0,5.0;" x1="808" x2="808" y1="36.2969" y2="1147.1484"/><line style="stroke:#181818;stroke-width:0.5;stroke-dasharray:5.0,5.0;" x1="1039" x2="1039" y1="36.2969" y2="1147.1484"/><line style="stroke:#181818;stroke-width:0.5;stroke-dasharray:5.0,5.0;" x1="1255" x2="1255" y1="36.2969" y2="1147.1484"/><line style="stroke:#181818;stroke-width:0.5;stroke-dasharray:5.0,5.0;" x1="1463" x2="1463" y1="36.2969" y2="1147.1484"/><line style="stroke:#181818;stroke-width:0.5;stroke-dasharray:5.0,5.0;" x1="1716" x2="1716" y1="36.2969" y2="1147.1484"/><line style="stroke:#181818;stroke-width:0.5;stroke-dasharray:5.0,5.0;" x1="1995" x2="1995" y1="36.2969" y2="1147.1484"/><line style="stroke:#181818;stroke-width:0.5;stroke-dasharray:5.0,5.0;" x1="2228" x2="2228" y1="36.2969" y2="1147.1484"/><line style="stroke:#181818;stroke-width:0.5;stroke-dasharray:5.0,5.0;" x1="2411" x2="2411" y1="36.2969" y2="1147.1484"/><line style="stroke:#181818;stroke-width:0.5;stroke-dasharray:5.0,5.0;" x1="2797" x2="2797" y1="36.2969" y2="1147.1484"/><rect fill="#E2E2F0" height="30.2969" rx="2.5" ry="2.5" style="stroke:#181818;stroke-width:0.5;" width="174" x="20" y="5"/><text fill="#000000" font-family="sans-serif" font-size="14" lengthAdjust="spacing" textLength="160" x="27" y="24.9951">InvitationApplicantBO</text><rect fill="#E2E2F0" height="30.2969" rx="2.5" ry="2.5" style="stroke:#181818;stroke-width:0.5;" width="174" x="20" y="1146.1484"/><text fill="#000000" font-family="sans-serif" font-size="14" lengthAdjust="spacing" textLength="160" x="27" y="1166.1436">InvitationApplicantBO</text><rect fill="#E2E2F0" height="30.2969" rx="2.5" ry="2.5" style="stroke:#181818;stroke-width:0.5;" width="202" x="204" y="5"/><text fill="#000000" font-family="sans-serif" font-size="14" lengthAdjust="spacing" textLength="188" x="211" y="24.9951">DomainContactChangeBO</text><rect fill="#E2E2F0" height="30.2969" rx="2.5" ry="2.5" style="stroke:#181818;stroke-width:0.5;" width="202" x="204" y="1146.1484"/><text fill="#000000" font-family="sans-serif" font-size="14" lengthAdjust="spacing" textLength="188" x="211" y="1166.1436">DomainContactChangeBO</text><rect fill="#E2E2F0" height="30.2969" rx="2.5" ry="2.5" style="stroke:#181818;stroke-width:0.5;" width="248" x="429" y="5"/><text fill="#000000" font-family="sans-serif" font-size="14" lengthAdjust="spacing" textLength="234" x="436" y="24.9951">DomainContactEventRepository</text><rect fill="#E2E2F0" height="30.2969" rx="2.5" ry="2.5" style="stroke:#181818;stroke-width:0.5;" width="248" x="429" y="1146.1484"/><text fill="#000000" font-family="sans-serif" font-size="14" lengthAdjust="spacing" textLength="234" x="436" y="1166.1436">DomainContactEventRepository</text><rect fill="#E2E2F0" height="30.2969" rx="2.5" ry="2.5" style="stroke:#181818;stroke-width:0.5;" width="243" x="687" y="5"/><text fill="#000000" font-family="sans-serif" font-size="14" lengthAdjust="spacing" textLength="229" x="694" y="24.9951">DomainContactServiceAlarmBO</text><rect fill="#E2E2F0" height="30.2969" rx="2.5" ry="2.5" style="stroke:#181818;stroke-width:0.5;" width="243" x="687" y="1146.1484"/><text fill="#000000" font-family="sans-serif" font-size="14" lengthAdjust="spacing" textLength="229" x="694" y="1166.1436">DomainContactServiceAlarmBO</text><rect fill="#E2E2F0" height="30.2969" rx="2.5" ry="2.5" style="stroke:#181818;stroke-width:0.5;" width="199" x="940" y="5"/><text fill="#000000" font-family="sans-serif" font-size="14" lengthAdjust="spacing" textLength="185" x="947" y="24.9951">InvitationServiceAlarmBO</text><rect fill="#E2E2F0" height="30.2969" rx="2.5" ry="2.5" style="stroke:#181818;stroke-width:0.5;" width="199" x="940" y="1146.1484"/><text fill="#000000" font-family="sans-serif" font-size="14" lengthAdjust="spacing" textLength="185" x="947" y="1166.1436">InvitationServiceAlarmBO</text><rect fill="#E2E2F0" height="30.2969" rx="2.5" ry="2.5" style="stroke:#181818;stroke-width:0.5;" width="212" x="1149" y="5"/><text fill="#000000" font-family="sans-serif" font-size="14" lengthAdjust="spacing" textLength="198" x="1156" y="24.9951">DomainUserAddReceiverBO</text><rect fill="#E2E2F0" height="30.2969" rx="2.5" ry="2.5" style="stroke:#181818;stroke-width:0.5;" width="212" x="1149" y="1146.1484"/><text fill="#000000" font-family="sans-serif" font-size="14" lengthAdjust="spacing" textLength="198" x="1156" y="1166.1436">DomainUserAddReceiverBO</text><rect fill="#E2E2F0" height="30.2969" rx="2.5" ry="2.5" style="stroke:#181818;stroke-width:0.5;" width="185" x="1371" y="5"/><text fill="#000000" font-family="sans-serif" font-size="14" lengthAdjust="spacing" textLength="171" x="1378" y="24.9951">WorksAtEntitlementBO</text><rect fill="#E2E2F0" height="30.2969" rx="2.5" ry="2.5" style="stroke:#181818;stroke-width:0.5;" width="185" x="1371" y="1146.1484"/><text fill="#000000" font-family="sans-serif" font-size="14" lengthAdjust="spacing" textLength="171" x="1378" y="1166.1436">WorksAtEntitlementBO</text><rect fill="#E2E2F0" height="30.2969" rx="2.5" ry="2.5" style="stroke:#181818;stroke-width:0.5;" width="300" x="1566" y="5"/><text fill="#000000" font-family="sans-serif" font-size="14" lengthAdjust="spacing" textLength="286" x="1573" y="24.9951">WorksAtDomainUserChangeReceiverBO</text><rect fill="#E2E2F0" height="30.2969" rx="2.5" ry="2.5" style="stroke:#181818;stroke-width:0.5;" width="300" x="1566" y="1146.1484"/><text fill="#000000" font-family="sans-serif" font-size="14" lengthAdjust="spacing" textLength="286" x="1573" y="1166.1436">WorksAtDomainUserChangeReceiverBO</text><rect fill="#E2E2F0" height="30.2969" rx="2.5" ry="2.5" style="stroke:#181818;stroke-width:0.5;" width="239" x="1876" y="5"/><text fill="#000000" font-family="sans-serif" font-size="14" lengthAdjust="spacing" textLength="225" x="1883" y="24.9951">WorksAtEntitlementChangeBO</text><rect fill="#E2E2F0" height="30.2969" rx="2.5" ry="2.5" style="stroke:#181818;stroke-width:0.5;" width="239" x="1876" y="1146.1484"/><text fill="#000000" font-family="sans-serif" font-size="14" lengthAdjust="spacing" textLength="225" x="1883" y="1166.1436">WorksAtEntitlementChangeBO</text><rect fill="#E2E2F0" height="30.2969" rx="2.5" ry="2.5" style="stroke:#181818;stroke-width:0.5;" width="206" x="2125" y="5"/><text fill="#000000" font-family="sans-serif" font-size="14" lengthAdjust="spacing" textLength="192" x="2132" y="24.9951">UserServiceAlarmPublisher</text><rect fill="#E2E2F0" height="30.2969" rx="2.5" ry="2.5" style="stroke:#181818;stroke-width:0.5;" width="206" x="2125" y="1146.1484"/><text fill="#000000" font-family="sans-serif" font-size="14" lengthAdjust="spacing" textLength="192" x="2132" y="1166.1436">UserServiceAlarmPublisher</text><rect fill="#E2E2F0" height="30.2969" rx="2.5" ry="2.5" style="stroke:#181818;stroke-width:0.5;" width="141" x="2341" y="5"/><text fill="#000000" font-family="sans-serif" font-size="14" lengthAdjust="spacing" textLength="127" x="2348" y="24.9951">MessageQueueBO</text><rect fill="#E2E2F0" height="30.2969" rx="2.5" ry="2.5" style="stroke:#181818;stroke-width:0.5;" width="141" x="2341" y="1146.1484"/><text fill="#000000" font-family="sans-serif" font-size="14" lengthAdjust="spacing" textLength="127" x="2348" y="1166.1436">MessageQueueBO</text><path d="M2781,10 L2814,10 C2819,10 2819,23.1484 2819,23.1484 C2819,23.1484 2819,36.2969 2814,36.2969 L2781,36.2969 C2776,36.2969 2776,23.1484 2776,23.1484 C2776,23.1484 2776,10 2781,10 " fill="#E2E2F0" style="stroke:#181818;stroke-width:0.5;"/><path d="M2814,10 C2809,10 2809,23.1484 2809,23.1484 C2809,36.2969 2814,36.2969 2814,36.2969 " fill="none" style="stroke:#181818;stroke-width:0.5;"/><text fill="#000000" font-family="sans-serif" font-size="14" lengthAdjust="spacing" textLength="23" x="2781" y="27.9951">MQ</text><path d="M2781,1146.1484 L2814,1146.1484 C2819,1146.1484 2819,1159.2969 2819,1159.2969 C2819,1159.2969 2819,1172.4453 2814,1172.4453 L2781,1172.4453 C2776,1172.4453 2776,1159.2969 2776,1159.2969 C2776,1159.2969 2776,1146.1484 2781,1146.1484 " fill="#E2E2F0" style="stroke:#181818;stroke-width:0.5;"/><path d="M2814,1146.1484 C2809,1146.1484 2809,1159.2969 2809,1159.2969 C2809,1172.4453 2814,1172.4453 2814,1172.4453 " fill="none" style="stroke:#181818;stroke-width:0.5;"/><text fill="#000000" font-family="sans-serif" font-size="14" lengthAdjust="spacing" textLength="23" x="2781" y="1164.1436">MQ</text><path d="M10,53.2969 L116,53.2969 L116,60.4297 L106,70.4297 L10,70.4297 L10,53.2969 " fill="#EEEEEE" style="stroke:#000000;stroke-width:1.5;"/><rect fill="none" height="334.1953" style="stroke:#000000;stroke-width:1.5;" width="2819" x="10" y="53.2969"/><text fill="#000000" font-family="sans-serif" font-size="13" font-weight="bold" lengthAdjust="spacing" textLength="61" x="25" y="66.3638">&#50976;&#51200; &#52628;&#44032;</text><polygon fill="#181818" points="293,87.5625,303,91.5625,293,95.5625,297,91.5625" style="stroke:#181818;stroke-width:1.0;"/><line style="stroke:#181818;stroke-width:1.0;" x1="107" x2="299" y1="91.5625" y2="91.5625"/><text fill="#000000" font-family="sans-serif" font-size="13" lengthAdjust="spacing" textLength="65" x="114" y="86.4966">insertUser</text><polygon fill="#181818" points="541,116.6953,551,120.6953,541,124.6953,545,120.6953" style="stroke:#181818;stroke-width:1.0;"/><line style="stroke:#181818;stroke-width:1.0;" x1="305" x2="547" y1="120.6953" y2="120.6953"/><text fill="#000000" font-family="sans-serif" font-size="13" lengthAdjust="spacing" textLength="224" x="312" y="115.6294">publishAsyncJobWhenCreatingUser</text><polygon fill="#181818" points="2399.5,145.8281,2409.5,149.8281,2399.5,153.8281,2403.5,149.8281" style="stroke:#181818;stroke-width:1.0;"/><line style="stroke:#181818;stroke-width:1.0;" x1="553" x2="2405.5" y1="149.8281" y2="149.8281"/><text fill="#000000" font-family="sans-serif" font-size="13" lengthAdjust="spacing" textLength="157" x="560" y="144.7622">publish(domainUserAdd)</text><polygon fill="#181818" points="2785.5,174.9609,2795.5,178.9609,2785.5,182.9609,2789.5,178.9609" style="stroke:#181818;stroke-width:1.0;"/><line style="stroke:#181818;stroke-width:1.0;" x1="2411.5" x2="2791.5" y1="178.9609" y2="178.9609"/><text fill="#000000" font-family="sans-serif" font-size="13" lengthAdjust="spacing" textLength="102" x="2418.5" y="173.895">domainUserAdd</text><polygon fill="#181818" points="564,188.9609,554,192.9609,564,196.9609,560,192.9609" style="stroke:#181818;stroke-width:1.0;"/><line style="stroke:#181818;stroke-width:1.0;stroke-dasharray:2.0,2.0;" x1="558" x2="2410.5" y1="192.9609" y2="192.9609"/><polygon fill="#181818" points="316,202.9609,306,206.9609,316,210.9609,312,206.9609" style="stroke:#181818;stroke-width:1.0;"/><line style="stroke:#181818;stroke-width:1.0;stroke-dasharray:2.0,2.0;" x1="310" x2="552" y1="206.9609" y2="206.9609"/><polygon fill="#181818" points="796.5,232.0938,806.5,236.0938,796.5,240.0938,800.5,236.0938" style="stroke:#181818;stroke-width:1.0;"/><line style="stroke:#181818;stroke-width:1.0;" x1="305" x2="802.5" y1="236.0938" y2="236.0938"/><text fill="#000000" font-family="sans-serif" font-size="13" lengthAdjust="spacing" textLength="147" x="312" y="231.0278">sendWelcomeMessage</text><polygon fill="#181818" points="2216,261.2266,2226,265.2266,2216,269.2266,2220,265.2266" style="stroke:#181818;stroke-width:1.0;"/><line style="stroke:#181818;stroke-width:1.0;" x1="808.5" x2="2222" y1="265.2266" y2="265.2266"/><text fill="#000000" font-family="sans-serif" font-size="13" lengthAdjust="spacing" textLength="45" x="815.5" y="260.1606">publish</text><polygon fill="#181818" points="2399.5,290.3594,2409.5,294.3594,2399.5,298.3594,2403.5,294.3594" style="stroke:#181818;stroke-width:1.0;"/><line style="stroke:#181818;stroke-width:1.0;" x1="2228" x2="2405.5" y1="294.3594" y2="294.3594"/><text fill="#000000" font-family="sans-serif" font-size="13" lengthAdjust="spacing" textLength="139" x="2235" y="289.2935">publish(serviceAlarm)</text><polygon fill="#FF0000" points="2785.5,319.4922,2795.5,323.4922,2785.5,327.4922,2789.5,323.4922" style="stroke:#FF0000;stroke-width:1.0;"/><line style="stroke:#FF0000;stroke-width:1.0;" x1="2411.5" x2="2791.5" y1="323.4922" y2="323.4922"/><text fill="#000000" font-family="sans-serif" font-size="13" lengthAdjust="spacing" textLength="150" x="2418.5" y="318.4263">serviceAlarm[&#44032;&#51077; &#50756;&#47308;]</text><polygon fill="#181818" points="2239,333.4922,2229,337.4922,2239,341.4922,2235,337.4922" style="stroke:#181818;stroke-width:1.0;"/><line style="stroke:#181818;stroke-width:1.0;stroke-dasharray:2.0,2.0;" x1="2233" x2="2410.5" y1="337.4922" y2="337.4922"/><polygon fill="#181818" points="819.5,347.4922,809.5,351.4922,819.5,355.4922,815.5,351.4922" style="stroke:#181818;stroke-width:1.0;"/><line style="stroke:#181818;stroke-width:1.0;stroke-dasharray:2.0,2.0;" x1="813.5" x2="2227" y1="351.4922" y2="351.4922"/><polygon fill="#181818" points="316,361.4922,306,365.4922,316,369.4922,312,365.4922" style="stroke:#181818;stroke-width:1.0;"/><line style="stroke:#181818;stroke-width:1.0;stroke-dasharray:2.0,2.0;" x1="310" x2="807.5" y1="365.4922" y2="365.4922"/><polygon fill="#181818" points="118,375.4922,108,379.4922,118,383.4922,114,379.4922" style="stroke:#181818;stroke-width:1.0;"/><line style="stroke:#181818;stroke-width:1.0;stroke-dasharray:2.0,2.0;" x1="112" x2="304" y1="379.4922" y2="379.4922"/><path d="M10,401.4922 L163,401.4922 L163,408.625 L153,418.625 L10,418.625 L10,401.4922 " fill="#EEEEEE" style="stroke:#000000;stroke-width:1.5;"/><rect fill="none" height="175.6641" style="stroke:#000000;stroke-width:1.5;" width="2819" x="10" y="401.4922"/><text fill="#000000" font-family="sans-serif" font-size="13" font-weight="bold" lengthAdjust="spacing" textLength="108" x="25" y="414.5591">&#44032;&#51077; &#49849;&#51064; &#47700;&#49884;&#51648;</text><polygon fill="#181818" points="1027.5,435.7578,1037.5,439.7578,1027.5,443.7578,1031.5,439.7578" style="stroke:#181818;stroke-width:1.0;"/><line style="stroke:#181818;stroke-width:1.0;" x1="107" x2="1033.5" y1="439.7578" y2="439.7578"/><text fill="#000000" font-family="sans-serif" font-size="13" lengthAdjust="spacing" textLength="208" x="114" y="434.6919">sendInvitationApprovedMessage</text><polygon fill="#181818" points="2216,464.8906,2226,468.8906,2216,472.8906,2220,468.8906" style="stroke:#181818;stroke-width:1.0;"/><line style="stroke:#181818;stroke-width:1.0;" x1="1039.5" x2="2222" y1="468.8906" y2="468.8906"/><text fill="#000000" font-family="sans-serif" font-size="13" lengthAdjust="spacing" textLength="45" x="1046.5" y="463.8247">publish</text><polygon fill="#181818" points="2399.5,494.0234,2409.5,498.0234,2399.5,502.0234,2403.5,498.0234" style="stroke:#181818;stroke-width:1.0;"/><line style="stroke:#181818;stroke-width:1.0;" x1="2228" x2="2405.5" y1="498.0234" y2="498.0234"/><text fill="#000000" font-family="sans-serif" font-size="13" lengthAdjust="spacing" textLength="139" x="2235" y="492.9575">publish(serviceAlarm)</text><polygon fill="#FF0000" points="2785.5,523.1563,2795.5,527.1563,2785.5,531.1563,2789.5,527.1563" style="stroke:#FF0000;stroke-width:1.0;"/><line style="stroke:#FF0000;stroke-width:1.0;" x1="2411.5" x2="2791.5" y1="527.1563" y2="527.1563"/><text fill="#000000" font-family="sans-serif" font-size="13" lengthAdjust="spacing" textLength="150" x="2418.5" y="522.0903">serviceAlarm[&#44032;&#51077; &#49849;&#51064;]</text><polygon fill="#181818" points="2239,537.1563,2229,541.1563,2239,545.1563,2235,541.1563" style="stroke:#181818;stroke-width:1.0;"/><line style="stroke:#181818;stroke-width:1.0;stroke-dasharray:2.0,2.0;" x1="2233" x2="2410.5" y1="541.1563" y2="541.1563"/><polygon fill="#181818" points="1050.5,551.1563,1040.5,555.1563,1050.5,559.1563,1046.5,555.1563" style="stroke:#181818;stroke-width:1.0;"/><line style="stroke:#181818;stroke-width:1.0;stroke-dasharray:2.0,2.0;" x1="1044.5" x2="2227" y1="555.1563" y2="555.1563"/><polygon fill="#181818" points="118,565.1563,108,569.1563,118,573.1563,114,569.1563" style="stroke:#181818;stroke-width:1.0;"/><line style="stroke:#181818;stroke-width:1.0;stroke-dasharray:2.0,2.0;" x1="112" x2="1038.5" y1="569.1563" y2="569.1563"/><path d="M10,591.1563 L196,591.1563 L196,598.2891 L186,608.2891 L10,608.2891 L10,591.1563 " fill="#EEEEEE" style="stroke:#000000;stroke-width:1.5;"/><rect fill="none" height="175.6641" style="stroke:#000000;stroke-width:1.5;" width="2819" x="10" y="591.1563"/><text fill="#000000" font-family="sans-serif" font-size="13" font-weight="bold" lengthAdjust="spacing" textLength="141" x="25" y="604.2231">&#50868;&#50689; &#44288;&#47532;&#51088; &#44428;&#54620; &#50504;&#45236;</text><polygon fill="#181818" points="1027.5,625.4219,1037.5,629.4219,1027.5,633.4219,1031.5,629.4219" style="stroke:#181818;stroke-width:1.0;"/><line style="stroke:#181818;stroke-width:1.0;" x1="107" x2="1033.5" y1="629.4219" y2="629.4219"/><text fill="#000000" font-family="sans-serif" font-size="13" lengthAdjust="spacing" textLength="249" x="114" y="624.356">sendAdminInvitationApprovedMessage</text><polygon fill="#181818" points="2216,654.5547,2226,658.5547,2216,662.5547,2220,658.5547" style="stroke:#181818;stroke-width:1.0;"/><line style="stroke:#181818;stroke-width:1.0;" x1="1039.5" x2="2222" y1="658.5547" y2="658.5547"/><text fill="#000000" font-family="sans-serif" font-size="13" lengthAdjust="spacing" textLength="45" x="1046.5" y="653.4888">publish</text><polygon fill="#181818" points="2399.5,683.6875,2409.5,687.6875,2399.5,691.6875,2403.5,687.6875" style="stroke:#181818;stroke-width:1.0;"/><line style="stroke:#181818;stroke-width:1.0;" x1="2228" x2="2405.5" y1="687.6875" y2="687.6875"/><text fill="#000000" font-family="sans-serif" font-size="13" lengthAdjust="spacing" textLength="139" x="2235" y="682.6216">publish(serviceAlarm)</text><polygon fill="#FF0000" points="2785.5,712.8203,2795.5,716.8203,2785.5,720.8203,2789.5,716.8203" style="stroke:#FF0000;stroke-width:1.0;"/><line style="stroke:#FF0000;stroke-width:1.0;" x1="2411.5" x2="2791.5" y1="716.8203" y2="716.8203"/><text fill="#000000" font-family="sans-serif" font-size="13" lengthAdjust="spacing" textLength="223" x="2418.5" y="711.7544">serviceAlarm[&#50868;&#50689; &#44288;&#47532;&#51088; &#44428;&#54620; &#50504;&#45236;]</text><polygon fill="#181818" points="2239,726.8203,2229,730.8203,2239,734.8203,2235,730.8203" style="stroke:#181818;stroke-width:1.0;"/><line style="stroke:#181818;stroke-width:1.0;stroke-dasharray:2.0,2.0;" x1="2233" x2="2410.5" y1="730.8203" y2="730.8203"/><polygon fill="#181818" points="1050.5,740.8203,1040.5,744.8203,1050.5,748.8203,1046.5,744.8203" style="stroke:#181818;stroke-width:1.0;"/><line style="stroke:#181818;stroke-width:1.0;stroke-dasharray:2.0,2.0;" x1="1044.5" x2="2227" y1="744.8203" y2="744.8203"/><polygon fill="#181818" points="118,754.8203,108,758.8203,118,762.8203,114,758.8203" style="stroke:#181818;stroke-width:1.0;"/><line style="stroke:#181818;stroke-width:1.0;stroke-dasharray:2.0,2.0;" x1="112" x2="1038.5" y1="758.8203" y2="758.8203"/><path d="M1139,780.8203 L1363,780.8203 L1363,787.9531 L1353,797.9531 L1139,797.9531 L1139,780.8203 " fill="#EEEEEE" style="stroke:#000000;stroke-width:1.5;"/><rect fill="none" height="349.3281" style="stroke:#000000;stroke-width:1.5;" width="1690" x="1139" y="780.8203"/><text fill="#000000" font-family="sans-serif" font-size="13" font-weight="bold" lengthAdjust="spacing" textLength="174" x="1154" y="793.8872">&#50808;&#48512; &#44228;&#51221; &#50672;&#46041; &#48708;&#46041;&#44592; &#52376;&#47532;</text><text fill="#000000" font-family="sans-serif" font-size="11" font-weight="bold" lengthAdjust="spacing" textLength="377" x="1378" y="793.0308">[&#46020;&#47700;&#51064;&#51060; &#50808;&#48512;&#50672;&#46041; &#49324;&#50857;&#54632;&#51060;&#44256; &#44428;&#54620; &#51088;&#46041; &#48512;&#50668; &#50741;&#49496;&#51060; ON &#51060;&#47732; &#44428;&#54620; &#48512;&#50668;]</text><polygon fill="#181818" points="1266,815.0859,1256,819.0859,1266,823.0859,1262,819.0859" style="stroke:#181818;stroke-width:1.0;"/><line style="stroke:#181818;stroke-width:1.0;stroke-dasharray:2.0,2.0;" x1="1260" x2="2796.5" y1="819.0859" y2="819.0859"/><text fill="#000000" font-family="sans-serif" font-size="13" lengthAdjust="spacing" textLength="102" x="1272" y="814.02">domainUserAdd</text><polygon fill="#181818" points="1451.5,844.2188,1461.5,848.2188,1451.5,852.2188,1455.5,848.2188" style="stroke:#181818;stroke-width:1.0;"/><line style="stroke:#181818;stroke-width:1.0;" x1="1255" x2="1457.5" y1="848.2188" y2="848.2188"/><text fill="#000000" font-family="sans-serif" font-size="13" lengthAdjust="spacing" textLength="157" x="1262" y="843.1528">addDomainWorksAtUser</text><polygon fill="#181818" points="2399.5,873.3516,2409.5,877.3516,2399.5,881.3516,2403.5,877.3516" style="stroke:#181818;stroke-width:1.0;"/><line style="stroke:#181818;stroke-width:1.0;" x1="1463.5" x2="2405.5" y1="877.3516" y2="877.3516"/><text fill="#000000" font-family="sans-serif" font-size="13" lengthAdjust="spacing" textLength="235" x="1470.5" y="872.2856">publish(worksAtDomainUserChange)</text><polygon fill="#181818" points="2785.5,902.4844,2795.5,906.4844,2785.5,910.4844,2789.5,906.4844" style="stroke:#181818;stroke-width:1.0;"/><line style="stroke:#181818;stroke-width:1.0;" x1="2411.5" x2="2791.5" y1="906.4844" y2="906.4844"/><text fill="#000000" font-family="sans-serif" font-size="13" lengthAdjust="spacing" textLength="180" x="2418.5" y="901.4185">worksAtDomainUserChange</text><polygon fill="#181818" points="1474.5,916.4844,1464.5,920.4844,1474.5,924.4844,1470.5,920.4844" style="stroke:#181818;stroke-width:1.0;"/><line style="stroke:#181818;stroke-width:1.0;stroke-dasharray:2.0,2.0;" x1="1468.5" x2="2410.5" y1="920.4844" y2="920.4844"/><polygon fill="#181818" points="1266,930.4844,1256,934.4844,1266,938.4844,1262,934.4844" style="stroke:#181818;stroke-width:1.0;"/><line style="stroke:#181818;stroke-width:1.0;stroke-dasharray:2.0,2.0;" x1="1260" x2="1462.5" y1="934.4844" y2="934.4844"/><polygon fill="#181818" points="1727,959.6172,1717,963.6172,1727,967.6172,1723,963.6172" style="stroke:#181818;stroke-width:1.0;"/><line style="stroke:#181818;stroke-width:1.0;stroke-dasharray:2.0,2.0;" x1="1721" x2="2796.5" y1="963.6172" y2="963.6172"/><text fill="#000000" font-family="sans-serif" font-size="13" lengthAdjust="spacing" textLength="180" x="1733" y="958.5513">worksAtDomainUserChange</text><polygon fill="#181818" points="1983.5,988.75,1993.5,992.75,1983.5,996.75,1987.5,992.75" style="stroke:#181818;stroke-width:1.0;"/><line style="stroke:#181818;stroke-width:1.0;" x1="1716" x2="1989.5" y1="992.75" y2="992.75"/><text fill="#000000" font-family="sans-serif" font-size="13" lengthAdjust="spacing" textLength="175" x="1723" y="987.6841">changeWorksAtEntitlement</text><polygon fill="#181818" points="2216,1017.8828,2226,1021.8828,2216,1025.8828,2220,1021.8828" style="stroke:#181818;stroke-width:1.0;"/><line style="stroke:#181818;stroke-width:1.0;" x1="1995.5" x2="2222" y1="1021.8828" y2="1021.8828"/><text fill="#000000" font-family="sans-serif" font-size="13" lengthAdjust="spacing" textLength="45" x="2002.5" y="1016.8169">publish</text><polygon fill="#181818" points="2399.5,1047.0156,2409.5,1051.0156,2399.5,1055.0156,2403.5,1051.0156" style="stroke:#181818;stroke-width:1.0;"/><line style="stroke:#181818;stroke-width:1.0;" x1="2228" x2="2405.5" y1="1051.0156" y2="1051.0156"/><text fill="#000000" font-family="sans-serif" font-size="13" lengthAdjust="spacing" textLength="139" x="2235" y="1045.9497">publish(serviceAlarm)</text><polygon fill="#FF0000" points="2785.5,1076.1484,2795.5,1080.1484,2785.5,1084.1484,2789.5,1080.1484" style="stroke:#FF0000;stroke-width:1.0;"/><line style="stroke:#FF0000;stroke-width:1.0;" x1="2411.5" x2="2791.5" y1="1080.1484" y2="1080.1484"/><text fill="#000000" font-family="sans-serif" font-size="13" lengthAdjust="spacing" textLength="362" x="2418.5" y="1075.0825">serviceAlarm[&#50808;&#48512; LINE WORKS &#50672;&#46041; &#49444;&#51221; / LINE &#50672;&#46041; &#49444;&#51221;]</text><polygon fill="#181818" points="2239,1090.1484,2229,1094.1484,2239,1098.1484,2235,1094.1484" style="stroke:#181818;stroke-width:1.0;"/><line style="stroke:#181818;stroke-width:1.0;stroke-dasharray:2.0,2.0;" x1="2233" x2="2410.5" y1="1094.1484" y2="1094.1484"/><polygon fill="#181818" points="2006.5,1104.1484,1996.5,1108.1484,2006.5,1112.1484,2002.5,1108.1484" style="stroke:#181818;stroke-width:1.0;"/><line style="stroke:#181818;stroke-width:1.0;stroke-dasharray:2.0,2.0;" x1="2000.5" x2="2227" y1="1108.1484" y2="1108.1484"/><polygon fill="#181818" points="1727,1118.1484,1717,1122.1484,1727,1126.1484,1723,1122.1484" style="stroke:#181818;stroke-width:1.0;"/><line style="stroke:#181818;stroke-width:1.0;stroke-dasharray:2.0,2.0;" x1="1721" x2="1994.5" y1="1122.1484" y2="1122.1484"/><!--SRC=[tLP1Rn916BtFhvZ4YnwCHoq7axNbKBL5Q0m7qiDsTm8JONQT7J2zOKCJeqtQGudG027Hg2GSY4L2_zBkz3yumxAmb9q5JG_L2qjstllsVU_DjxEsJXasiAqJ1byxYEuXMi46qeewBRqg7nInKq0KMjGKlnkFWHs2xo37qVCeNKPbz2mLO9w0j_86t4a7TpO0o5EhR4FUwl9k5VBHkJkeWcrImKnds2AQRHUn8KgAAW-VmYshf6EoQH6c6sope9EyA9-0c0XvJ6e4aOWbQhA22CiWst8mi-XX0jf-FvfpI8pdra6sWCWcHK82oI-NlS6MrHSRdjMxRqvuieHccW_03LyaCPs02w0bp0hjAwIfJ5lJg73ciYy74JEBYePLGbET80OloobtpimaeDvSCSuw8SAoiRbx59dxlhrXP4viBzuvXhnPyxwSx4UPhLGJfpFUjtYF_ZGYWOyS422o2UOfQFFZ5M-FeTSxvvzQ_7lCPCqNeY9Ve56hWimWVHNl3aS_yUHMerUP4EFEEY7oYo5ll8VkiEfzw_FE6NH79zVr5kJr3zxHy6-prCmI9lz5eF7-_1C9DyVUg0hTonhlrY7_FF1Ecz2xgecBEnv0_hCXEeCvxxGcHxWzvktXb3F5ygC-l-XTrt-85VUoEtEWSpQf975zo1k_-753SbExK5oytZ00-WXXLJhq7fgUH1ba85n1L2QrU4GfO3BYh4NVE1fB4ePP4PMGx3W1TTFqETFboPaQ1OtR9Uzy_FpX_YjHTQegu56x8ag9GfxQ90025xFHJmxxgHAtaXhjyVnJo9ZyMqO0DUakJhO_5o-tTvCmcygys0jcWzU-oabvv2yjtBpLULUx5MlaEk7B-VyD]--></g></svg>